<?xml version="1.0" encoding="utf-8"?>
<!-- Generator: Adobe Illustrator 25.0.1, SVG Export Plug-In . SVG Version: 6.00 Build 0)  -->
<svg version="1.0" id="katman_1" xmlns="http://www.w3.org/2000/svg" xmlns:xlink="http://www.w3.org/1999/xlink" x="0px" y="0px"
	 viewBox="0 0 600 400" style="enable-background:new 0 0 600 400;" xml:space="preserve">
<style type="text/css">
	.st0{fill:#05164D;}
</style>
<g>
	<path class="st0" d="M85.1,202.5l-0.3,0.7c-1.3-0.3-3.6-1.1-6-2.2l-0.3,0.6l1,0.5c3.5,1.8,4.7,2.2,6.7,2.2c4.1,0,7.1-2.3,8.6-6.4
		c2.5-0.5,5.8-0.7,9.6-0.7c3.3,0,6.2,0.2,9.8,0.6l-0.9,1.1c-1.7-0.2-4.8-0.4-7.1-0.4c-2.7,0-4.4,0.1-5.3,0.1l-0.5,1
		c2.3-0.1,3.1-0.1,4.8-0.1c3,0,5.3,0.1,7.3,0.3l-0.9,1.2c-3.4-0.1-5-0.2-7.6-0.2c-1.4,0-2.5,0.1-4.2,0.1l-0.4,1
		c1.5-0.1,3.5-0.2,5.6-0.2c2,0,4.4,0.1,5.9,0.1l-0.9,1.2c-1-0.1-2.9-0.1-4.4-0.1c-2.4,0-5.3,0.1-6.8,0.3l-0.4,0.9
		c2.8-0.3,4.6-0.4,7.6-0.4c1.2,0,2,0,3.3,0.1l-1,1.3c-1.9-0.1-2.5-0.1-3.2-0.1c-5.2,0-8.6,0.8-12,2.7c3.1,3.1,8.3,5.3,13,5.3
		c0.4,0,0.6,0,1.6-0.1l-2.3,2.3c-12.4-3.2-14.6-4.1-26-10.9c-4.5-2.6-8.2-4.3-11.1-5.2l0.4-1.4c0.7,0.1,2.2,0.6,3.7,1l0.7-1.5
		L85.1,202.5z M66.4,203.6c0,13.6,11.1,24.7,24.7,24.7c13.7,0,24.8-11,24.8-24.7c0-13.9-11-24.9-25-24.9
		C77.5,178.8,66.4,190,66.4,203.6L66.4,203.6z M118.6,203.6c0,15.2-12.2,27.4-27.5,27.4c-15.1,0-27.4-12.2-27.4-27.3
		c0-15.4,12.3-27.6,27.9-27.6C106.4,176.1,118.6,188.5,118.6,203.6 M376.1,209.2c-1.1,0.3-1.5,0.4-2.4,0.7c-1.1,0.2-2.1,0.4-3.1,0.7
		c-2.8,0.7-4.2,1.8-4.2,3.5c0,1.7,1.3,2.7,3.5,2.7c4.2,0,6.2-1.9,6.2-5.8V209.2z M359.6,203.9c0.1-5.9,4.7-9.5,12.6-9.5
		c8.2,0,12.2,3.4,12.2,10.3v13.4c0,2.2,0,2.2,0.7,3.7h-8l-0.4-2.2c-3.2,2.6-5,3.3-8.6,3.3c-5.9,0-10.1-3.5-10.1-8.2
		c0-4,2.6-6.7,7.6-8.2c0.8-0.2,3.3-0.8,7.6-1.5c1.8-0.4,2.6-1,2.6-2.3c0-1.5-1.5-2.5-3.8-2.5c-2.8,0-4.5,1.4-4.5,3.6H359.6z
		 M347.6,203.7c-0.2-2.5-1.3-3.4-3.9-3.4c-2.1,0-3.5,0.8-3.5,2.2c0,1.3,1.3,2,4.1,2.5l3,0.5c6.3,1,9.2,3.7,9.2,8.2
		c0,5.6-4.8,9.2-12.2,9.2c-8.8,0-13.7-3.5-13.7-9.9h8.4v0.3c0,2.2,1.8,3.6,4.7,3.6c2.5,0,4.1-0.9,4.1-2.4c0-1.5-1.4-2.4-4.8-3
		l-2.7-0.4c-6.3-1.1-8.9-3.3-8.9-7.5c0-5.7,4.8-9.2,12.6-9.2c5.5,0,8.9,1.5,10.6,4.7c0.8,1.3,0.9,1.8,1.1,4.7L347.6,203.7z
		 M311.3,195.5l0.3,3c2-2.6,4.4-3.7,7.6-3.7c3.7,0,6.6,1.6,8.2,4.3c1.1,2,1.3,3.2,1.3,7.5v15.3h-8.6v-14.9c0-3.9-1.1-5.5-3.8-5.5
		c-2.8,0-4.2,1.9-4.2,5.5v14.9h-8.6v-26.4H311.3z M292.1,209.2c-1.1,0.3-1.4,0.4-2.3,0.7c-1,0.3-2,0.5-3.1,0.7
		c-2.8,0.7-4.2,1.8-4.2,3.5c0,1.7,1.3,2.7,3.4,2.7c4.2,0,6.2-1.9,6.2-5.8V209.2z M275.7,203.9c0-6,4.7-9.5,12.5-9.5
		c8.2,0,12.2,3.4,12.2,10.3v13.4c0,2.3,0,2.3,0.7,3.7h-8l-0.5-2.2c-2.7,2.4-5.1,3.3-8.6,3.3c-5.8,0-10-3.5-10-8.2
		c0-4,2.6-6.7,7.6-8.2c0.8-0.2,3.3-0.7,7.6-1.5c1.9-0.4,2.6-1,2.6-2.3c0-1.5-1.5-2.5-3.8-2.5c-2.8,0-4.4,1.3-4.5,3.6H275.7z
		 M255.4,185.2v13.2c1.6-2.6,3.9-3.7,7.2-3.7c3.6,0,6.5,1.5,8.1,4.3c1.1,2,1.3,3.1,1.3,7.5v15.3h-8.6v-14.9c0-3.8-1.1-5.5-3.8-5.5
		c-2.8,0-4.3,1.9-4.3,5.5v14.9h-8.6v-36.6H255.4z M239.6,187.3v8.2h4.9v5.8h-4.9v10.4c0.1,3.8,0.3,4.1,3.6,4.1h1.7v6h-6.5
		c-5.1,0-7.4-2.4-7.4-7.7v-12.8h-3.6v-5.8h3.6v-8.2H239.6z M226.3,191.1h-1.4c-3.2,0-4,0.8-4,3.7v0.8h5.1v5.8h-5.1v20.5h-8.6v-20.5
		h-3.7v-5.8h3.7v-0.8c0-6.9,2.6-9.5,9.3-9.5h4.7V191.1z M199,221.9l-0.3-2.6c-2.1,2.3-4.6,3.3-7.6,3.3c-3.7,0-6.7-1.5-8.3-4.2
		c-1.2-2-1.3-3-1.3-7.3v-15.6h8.6v15.3c0,3.8,1.1,5.4,3.8,5.4c2.9,0,4.3-1.9,4.3-5.4v-15.3h8.6v26.4H199z M164.3,185.2v29.4h15.5
		v7.3h-24.6v-36.6 M434,209.2c-0.1,3.2-0.9,5.6-2.9,8c-3,3.8-7.6,5.8-13.7,5.8c-5.5,0-9.7-1.5-13-4.6c-3.8-3.6-5.9-8.7-5.9-14.5
		c0-6,2.1-11.6,5.9-15.1c3.1-3,7.6-4.6,13.2-4.6c6,0,10.4,2,13.5,6c1.8,2.4,2.6,4.7,2.9,7.9h-9.3c-0.6-4.2-3.5-6.8-7.5-6.8
		c-5.5,0-8.9,4.6-8.9,11.9c0,7.7,3.4,12.2,9.2,12.2c4.1,0,6.6-2.1,7.2-6.2 M453.5,209.2c-1,0.3-1.4,0.4-2.4,0.7
		c-0.3,0.1-0.3,0.1-3.1,0.8c-2.8,0.7-4.2,1.8-4.2,3.5c0,1.6,1.3,2.7,3.5,2.7c2.3,0,4.5-1,5.4-2.4c0.5-0.7,0.7-1.7,0.7-3.4
		L453.5,209.2z M437,203.9c0-5.9,4.7-9.5,12.5-9.5c5.4,0,9.2,1.7,11,4.8c0.9,1.6,1.1,2.9,1.1,5.5v14.6c0,1,0.1,1.3,0.7,2.5h-7.9
		l-0.5-2.2c-3,2.5-5,3.3-8.6,3.3c-5.9,0-10-3.5-10-8.2c0-4,2.6-6.7,7.6-8.2c0.7-0.2,3.2-0.7,7.6-1.5c1.8-0.4,2.6-1,2.6-2.3
		c0-1.5-1.6-2.4-3.9-2.4c-2.8,0-4.4,1.3-4.5,3.6 M472.6,195.5l0.3,2.8c1.7-2.3,4.2-3.6,7-3.6c0.3,0,1,0.1,1.8,0.2v7.2
		c-0.7-0.1-0.9-0.2-1.4-0.2c-2.4,0-4.4,1-5.7,2.8c-0.9,1.4-1.2,2.6-1.2,5.7v11.5h-8.6v-26.4 M490,207.6c0,4,2.3,6.6,5.7,6.6
		c3.4,0,5.3-2.4,5.3-6.6c0-4.2-2-6.6-5.4-6.6C492.2,201.1,490,203.7,490,207.6L490,207.6z M509.4,195.5v24.2c0,4.3-0.3,5.4-2.1,7.5
		c-2.7,2.8-6.3,4.1-12,4.1c-4.2,0-7.1-1-9.5-3.1c-1.7-1.5-2.4-3.1-2.6-5.4h8.7c0.6,1.9,1.8,2.6,4.2,2.6c3.3,0,5.1-1.8,5.1-5.2v-1.9
		c-2.3,1.7-4.2,2.4-7,2.4c-7.5,0-12.6-5.1-12.6-12.8c0-7.6,5.2-13.1,12.4-13.1c3.2,0,5.4,0.9,7.3,3l0.3-2.3 M520.2,208.6
		c0,5,2,7.7,5.9,7.7c3.9,0,6-2.7,6-7.7c0-5.2-2-7.8-6-7.8C522.2,200.9,520.2,203.6,520.2,208.6L520.2,208.6z M540.8,208.7
		c0,9-5.4,14.3-14.7,14.3c-9.2,0-14.6-5.3-14.6-14.2c0-9.2,5.4-14.3,14.8-14.3C535.4,194.4,540.8,199.8,540.8,208.7"/>
</g>
</svg>
